Normalized EMG Linear Envelopes
nRows=43
nColumns=17

endheader
time	        VM	        VL	        RF	       GRA	        TA	   ADDLONG	   SEMIMEM	      BFLH	        GM	        GL	       TFL	   GLUTMAX	   GLUTMED	      PIRI	    OBTINT	        QF	
2.2475	  0.036505	  0.003449	  0.014429	  0.280312	  0.080055	  0.042271	  0.136619	  0.109953	  0.214184	  0.056504	  0.049951	  0.021211	  0.165559	  0.234451	  0.282447	  0.200849	
2.248	  0.036006	  0.003326	  0.013791	  0.280843	  0.079107	  0.041877	  0.138556	  0.111623	  0.214394	  0.055741	  0.048725	  0.020778	  0.163626	  0.232298	  0.283820	  0.200817	
2.2485	  0.035511	  0.003204	  0.013170	  0.281400	  0.078171	  0.041491	  0.140527	  0.113329	  0.214588	  0.054983	  0.047518	  0.020351	  0.161703	  0.230142	  0.285204	  0.200785	
2.249	  0.035020	  0.003084	  0.012567	  0.281982	  0.077247	  0.041112	  0.142532	  0.115069	  0.214766	  0.054230	  0.046330	  0.019931	  0.159790	  0.227983	  0.286600	  0.200756	
2.2495	  0.034533	  0.002966	  0.011979	  0.282591	  0.076335	  0.040742	  0.144569	  0.116844	  0.214929	  0.053482	  0.045160	  0.019516	  0.157888	  0.225822	  0.288008	  0.200729	
2.25	  0.034051	  0.002849	  0.011409	  0.283225	  0.075434	  0.040380	  0.146638	  0.118653	  0.215077	  0.052741	  0.044008	  0.019108	  0.155997	  0.223659	  0.289430	  0.200707	
2.2505	  0.033574	  0.002734	  0.010854	  0.283886	  0.074544	  0.040026	  0.148738	  0.120496	  0.215210	  0.052004	  0.042876	  0.018707	  0.154119	  0.221494	  0.290865	  0.200689	
2.251	  0.033101	  0.002620	  0.010315	  0.284573	  0.073667	  0.039680	  0.150870	  0.122371	  0.215330	  0.051274	  0.041761	  0.018311	  0.152253	  0.219330	  0.292316	  0.200677	
2.2515	  0.032632	  0.002508	  0.009792	  0.285287	  0.072800	  0.039343	  0.153032	  0.124280	  0.215435	  0.050550	  0.040666	  0.017923	  0.150401	  0.217165	  0.293781	  0.200672	
2.252	  0.032169	  0.002397	  0.009284	  0.286028	  0.071945	  0.039014	  0.155223	  0.126221	  0.215527	  0.049832	  0.039589	  0.017540	  0.148564	  0.215001	  0.295263	  0.200675	
2.2525	  0.031710	  0.002287	  0.008790	  0.286796	  0.071101	  0.038693	  0.157443	  0.128194	  0.215606	  0.049121	  0.038530	  0.017165	  0.146741	  0.212839	  0.296760	  0.200687	
2.253	  0.031256	  0.002179	  0.008312	  0.287590	  0.070269	  0.038380	  0.159691	  0.130198	  0.215673	  0.048415	  0.037490	  0.016796	  0.144935	  0.210678	  0.298275	  0.200709	
2.2535	  0.030808	  0.002071	  0.007848	  0.288411	  0.069447	  0.038076	  0.161966	  0.132233	  0.215728	  0.047717	  0.036469	  0.016433	  0.143145	  0.208520	  0.299806	  0.200742	
2.254	  0.030364	  0.001965	  0.007399	  0.289259	  0.068636	  0.037781	  0.164268	  0.134298	  0.215771	  0.047025	  0.035466	  0.016078	  0.141373	  0.206365	  0.301355	  0.200787	
2.2545	  0.029925	  0.001860	  0.006963	  0.290133	  0.067836	  0.037494	  0.166594	  0.136393	  0.215804	  0.046340	  0.034481	  0.015729	  0.139618	  0.204214	  0.302921	  0.200846	
2.255	  0.029492	  0.001756	  0.006541	  0.291034	  0.067047	  0.037215	  0.168945	  0.138516	  0.215827	  0.045661	  0.033514	  0.015387	  0.137883	  0.202067	  0.304505	  0.200918	
2.2555	  0.029064	  0.001652	  0.006132	  0.291961	  0.066269	  0.036945	  0.171320	  0.140668	  0.215840	  0.044990	  0.032566	  0.015052	  0.136167	  0.199925	  0.306106	  0.201006	
2.256	  0.028641	  0.001550	  0.005737	  0.292913	  0.065500	  0.036684	  0.173717	  0.142847	  0.215844	  0.044326	  0.031636	  0.014723	  0.134472	  0.197790	  0.307725	  0.201111	
2.2565	  0.028223	  0.001448	  0.005354	  0.293891	  0.064742	  0.036431	  0.176136	  0.145053	  0.215840	  0.043669	  0.030723	  0.014402	  0.132798	  0.195663	  0.309361	  0.201232	
2.257	  0.027811	  0.001347	  0.004984	  0.294894	  0.063995	  0.036187	  0.178575	  0.147285	  0.215828	  0.043019	  0.029829	  0.014087	  0.131146	  0.193543	  0.311014	  0.201370	
2.2575	  0.027405	  0.001247	  0.004626	  0.295921	  0.063257	  0.035952	  0.181033	  0.149542	  0.215809	  0.042377	  0.028952	  0.013780	  0.129517	  0.191433	  0.312685	  0.201528	
2.258	  0.027004	  0.001147	  0.004279	  0.296971	  0.062530	  0.035724	  0.183509	  0.151823	  0.215783	  0.041742	  0.028093	  0.013480	  0.127911	  0.189334	  0.314372	  0.201704	
2.2585	  0.026608	  0.001048	  0.003945	  0.298044	  0.061813	  0.035506	  0.186003	  0.154127	  0.215751	  0.041115	  0.027252	  0.013186	  0.126329	  0.187246	  0.316076	  0.201900	
2.259	  0.026219	  0.000950	  0.003622	  0.299139	  0.061106	  0.035296	  0.188512	  0.156454	  0.215714	  0.040495	  0.026428	  0.012900	  0.124771	  0.185172	  0.317796	  0.202117	
2.2595	  0.025834	  0.000852	  0.003311	  0.300256	  0.060409	  0.035095	  0.191035	  0.158802	  0.215670	  0.039883	  0.025621	  0.012621	  0.123238	  0.183111	  0.319533	  0.202354	
2.26	  0.025456	  0.000754	  0.003011	  0.301392	  0.059722	  0.034902	  0.193572	  0.161171	  0.215621	  0.039279	  0.024831	  0.012349	  0.121731	  0.181064	  0.321285	  0.202613	
2.2605	  0.025083	  0.000657	  0.002721	  0.302548	  0.059045	  0.034718	  0.196121	  0.163559	  0.215568	  0.038682	  0.024058	  0.012084	  0.120251	  0.179034	  0.323052	  0.202894	
2.261	  0.024715	  0.000560	  0.002442	  0.303723	  0.058378	  0.034542	  0.198680	  0.165965	  0.215509	  0.038094	  0.023302	  0.011826	  0.118796	  0.177020	  0.324834	  0.203198	
2.2615	  0.024354	  0.000463	  0.002173	  0.304914	  0.057720	  0.034375	  0.201248	  0.168389	  0.215447	  0.037513	  0.022562	  0.011575	  0.117369	  0.175024	  0.326630	  0.203523	
2.262	  0.023998	  0.000367	  0.001915	  0.306121	  0.057072	  0.034216	  0.203824	  0.170830	  0.215379	  0.036941	  0.021838	  0.011332	  0.115969	  0.173046	  0.328439	  0.203873	
2.2625	  0.023647	  0.000270	  0.001666	  0.307343	  0.056434	  0.034066	  0.206407	  0.173285	  0.215308	  0.036376	  0.021131	  0.011096	  0.114598	  0.171087	  0.330261	  0.204245	
2.263	  0.023302	  0.000174	  0.001427	  0.308578	  0.055805	  0.033924	  0.208995	  0.175755	  0.215234	  0.035820	  0.020440	  0.010867	  0.113254	  0.169149	  0.332096	  0.204641	
2.2635	  0.022963	  0.000078	  0.001198	  0.309825	  0.055187	  0.033790	  0.211587	  0.178237	  0.215155	  0.035273	  0.019765	  0.010646	  0.111939	  0.167231	  0.333942	  0.205062	
2.264	  0.022629	  0.000000	  0.000978	  0.311082	  0.054577	  0.033664	  0.214181	  0.180731	  0.215073	  0.034733	  0.019105	  0.010432	  0.110654	  0.165335	  0.335799	  0.205508	
2.2645	  0.022300	  0.000000	  0.000766	  0.312348	  0.053978	  0.033547	  0.216777	  0.183236	  0.214988	  0.034203	  0.018461	  0.010226	  0.109398	  0.163462	  0.337667	  0.205979	
2.265	  0.021978	  0.000000	  0.000564	  0.313623	  0.053388	  0.033438	  0.219372	  0.185749	  0.214900	  0.033680	  0.017832	  0.010027	  0.108172	  0.161613	  0.339544	  0.206477	
2.2655	  0.021660	  0.000000	  0.000371	  0.314903	  0.052808	  0.033336	  0.221967	  0.188271	  0.214808	  0.033167	  0.017218	  0.009836	  0.106976	  0.159788	  0.341431	  0.207002	
2.266	  0.021348	  0.000000	  0.000186	  0.316188	  0.052238	  0.033243	  0.224559	  0.190798	  0.214714	  0.032662	  0.016619	  0.009653	  0.105811	  0.157989	  0.343327	  0.207554	
2.2665	  0.021041	  0.000000	  0.000009	  0.317476	  0.051678	  0.033158	  0.227148	  0.193330	  0.214618	  0.032166	  0.016034	  0.009477	  0.104678	  0.156215	  0.345232	  0.208135	
2.267	  0.020739	  0.000000	  0.000000	  0.318766	  0.051127	  0.033081	  0.229731	  0.195866	  0.214520	  0.031678	  0.015464	  0.009309	  0.103576	  0.154469	  0.347145	  0.208745	
2.2675	  0.020443	  0.000000	  0.000000	  0.320056	  0.050587	  0.033011	  0.232307	  0.198404	  0.214421	  0.031200	  0.014908	  0.009149	  0.102507	  0.152750	  0.349065	  0.209385	
2.268	  0.020152	  0.000000	  0.000000	  0.321344	  0.050057	  0.032949	  0.234876	  0.200944	  0.214320	  0.030732	  0.014367	  0.008996	  0.101470	  0.151060	  0.350992	  0.210055	
2.2685	  0.019865	  0.000000	  0.000000	  0.322628	  0.049538	  0.032894	  0.237436	  0.203483	  0.214220	  0.030272	  0.013839	  0.008852	  0.100466	  0.149400	  0.352926	  0.210755	
